<svg width="153" height="99" viewBox="0 0 153 99" fill="none" xmlns="http://www.w3.org/2000/svg">
<path d="M93.7817 1.43408H90.4938C81.9476 1.43408 75.0197 7.94131 75.0197 16.4875V27.6123H84.1105C92.6567 27.6123 99.8783 20.3869 99.8783 11.8407V6.93931C99.8782 3.73446 96.9865 1.43408 93.7817 1.43408Z" fill="#70DCBA"/>
<path d="M109.685 73.0969H77.6781L65.9912 84.7837L77.6781 96.4707H109.685C116.139 96.4707 121.372 91.2384 121.372 84.7837C121.372 78.3293 116.139 73.0969 109.685 73.0969Z" fill="#FFCE71"/>
<path d="M77.6781 73.0969H45.671C39.2166 73.0969 33.984 78.3295 33.984 84.7837C33.984 91.2382 39.2164 96.4707 45.671 96.4707H77.6781C71.2234 90.0163 71.2234 79.5514 77.6781 73.0969Z" fill="#FFB357"/>
<path d="M114.933 59.7989L106.349 51.2156H60.9723L56.2335 55.9544V70.5606L67.8457 82.1728H92.4393C94.296 81.2626 96.4123 80.8981 98.527 81.1865C107.58 82.4212 115.292 74.7221 114.056 65.6579C113.779 63.6294 114.103 61.5998 114.933 59.7989Z" fill="#70DCBA"/>
<path d="M60.9723 51.2156H49.0063L40.423 59.7989C41.2531 61.5996 41.5768 63.6294 41.3003 65.6579C40.0654 74.7102 47.7647 82.4223 56.8287 81.1863C60.6028 80.6715 64.3817 82.2355 66.6819 85.2715C72.2036 92.5601 83.1605 92.549 88.6742 85.2715C89.6853 83.9366 90.9826 82.8868 92.4395 82.1726C77.2742 78.0063 65.3751 66.277 60.9723 51.2156Z" fill="#30CD9C"/>
<path d="M77.6781 79.3018C92.6393 79.3018 105.236 69.1866 109.008 55.4226L46.3481 55.4224C50.1202 69.1866 62.7168 79.3018 77.6781 79.3018Z" fill="#EA5B70"/>
<path d="M94.5632 63.7028C90.0529 68.2131 84.0564 70.6968 77.678 70.6968C71.2995 70.6968 65.303 68.2129 60.7929 63.7026C58.3973 61.307 56.5731 58.4914 55.3894 55.4224H99.9669C98.783 58.4916 96.959 61.3072 94.5632 63.7028Z" fill="#FF8E9E"/>
<path d="M77.6778 16.4875C51.4342 16.4875 30.1596 33.2189 30.1596 53.7914C30.1799 59.4196 34.7948 64.0058 40.4228 64.0058H77.6778V16.4875Z" fill="#FFB357"/>
<path d="M77.6778 16.4875C64.5561 29.6095 64.5561 50.8841 77.6778 64.0058H114.933C120.561 64.0058 125.176 59.4196 125.196 53.7914C125.196 33.2189 103.921 16.4875 77.6778 16.4875Z" fill="#FFCE71"/>
<path d="M64.8621 1.43408H61.5742C58.3694 1.43408 55.4778 3.73446 55.4778 6.93931V11.8407C55.4778 20.3869 62.6996 27.6123 71.2456 27.6123H80.3364V16.4875C80.3362 7.94131 73.4081 1.43408 64.8621 1.43408Z" fill="#30CD9C"/>
<path d="M55.9744 49.1379C55.9744 46.4977 58.5427 44.3574 61.711 44.3574C64.8792 44.3574 67.4476 46.4977 67.4476 49.1379C67.4476 51.7781 64.8792 53.9184 61.711 53.9184C58.5427 53.9184 55.9744 51.7781 55.9744 49.1379Z" fill="#FF8E9E"/>
<path d="M87.9081 49.1379C87.9081 46.4977 90.4765 44.3574 93.6448 44.3574C96.813 44.3574 99.3814 46.4977 99.3814 49.1379C99.3814 51.7781 96.813 53.9184 93.6448 53.9184C90.4765 53.9184 87.9081 51.7781 87.9081 49.1379Z" fill="#FF8E9E"/>
<path d="M44.1722 26.7693C43.0521 25.6493 41.2362 25.6491 40.1159 26.7693C38.9957 27.8892 38.9957 29.7054 40.1159 30.8256L42.4105 33.1203C43.5305 34.2402 45.3467 34.2402 46.4669 33.1203C47.5871 32.0003 47.5871 30.1841 46.4669 29.0639L44.1722 26.7693Z" fill="#FCE3A0"/>
<path d="M113.394 42.4494L111.099 40.1548C109.979 39.0348 108.163 39.0346 107.043 40.1548C105.923 41.2747 105.923 43.0909 107.043 44.2111L109.338 46.5057C110.458 47.6257 112.274 47.6257 113.394 46.5057C114.514 45.3856 114.514 43.5694 113.394 42.4494Z" fill="#FCE3A0"/>
<path d="M57.7082 30.5937L55.4135 32.8883C54.2935 34.0085 54.2933 35.8243 55.4135 36.9447C56.5335 38.0649 58.3497 38.0649 59.4699 36.9447L61.7645 34.65C62.8845 33.5301 62.8845 31.7139 61.7645 30.5937C60.6443 29.4733 58.8281 29.4733 57.7082 30.5937Z" fill="#FCE3A0"/>
<path d="M92.1278 26.7692L89.8332 29.0639C88.7132 30.184 88.713 31.9999 89.8332 33.1202C90.9531 34.2404 92.7693 34.2404 93.8895 33.1202L96.1842 30.8256C97.3041 29.7056 97.3041 27.8894 96.1842 26.7692C95.064 25.6489 93.2478 25.6489 92.1278 26.7692Z" fill="#FCE3A0"/>
<path d="M109.929 29.9446C111.513 29.9446 112.797 28.6604 112.797 27.0763C112.797 25.4922 111.513 24.208 109.929 24.208H106.684C105.1 24.208 103.815 25.4921 103.815 27.0763C103.815 28.6604 105.099 29.9446 106.684 29.9446H109.929Z" fill="#FCE3A0"/>
<path d="M42.26 43.9792C41.1399 42.8592 39.324 42.859 38.2037 43.9792C37.0835 45.0992 37.0835 46.9154 38.2037 48.0356L40.4983 50.3302C41.6183 51.4502 43.4345 51.4502 44.5547 50.3302C45.6748 49.2102 45.6748 47.394 44.5547 46.2739L42.26 43.9792Z" fill="#FCE3A0"/>
<path d="M65.117 48.1437C65.9092 48.1437 66.5511 47.5017 66.5511 46.7095V44.4149C66.5511 43.6226 65.9092 42.9807 65.117 42.9807C64.3248 42.9807 63.6828 43.6226 63.6828 44.4149V46.7095C63.6828 47.5015 64.3248 48.1437 65.117 48.1437Z" fill="black"/>
<path d="M81.9704 47.6377C82.4909 47.0406 82.4285 46.1348 81.8314 45.6142C81.2338 45.0937 80.328 45.1561 79.8079 45.7533C78.6288 47.1062 76.534 47.1046 75.3565 45.7533C74.836 45.1563 73.9299 45.0941 73.333 45.6142C72.736 46.1348 72.6736 47.0406 73.1939 47.6377C75.5163 50.3024 79.6507 50.2995 81.9704 47.6377Z" fill="black"/>
<path d="M87.9871 48.0799C88.7793 48.0799 89.4213 47.438 89.4213 46.6457C89.4213 45.9704 89.9706 45.4208 90.646 45.4208C91.3214 45.4208 91.871 45.9704 91.871 46.6457C91.871 47.438 92.5129 48.0799 93.3051 48.0799C94.0974 48.0799 94.7393 47.438 94.7393 46.6457C94.7393 44.3886 92.903 42.5525 90.646 42.5525C88.389 42.5525 86.5529 44.3888 86.5529 46.6457C86.5529 47.4378 87.1951 48.0799 87.9871 48.0799Z" fill="black"/>
<path d="M114.14 27.9449C114.697 25.2577 112.628 22.7741 109.929 22.7741H106.998C104.677 21.3989 102.204 20.1869 99.6196 19.1595C100.73 16.863 101.312 14.3633 101.312 11.8409V6.93938C101.312 3.11307 97.9338 0 93.7815 0H90.4936C85.5144 0 80.8567 2.07627 77.6866 5.63125C74.6091 2.16194 70.0422 0 64.8621 0H61.5742C57.4219 0 54.0436 3.11307 54.0436 6.93938V11.8407C54.0436 14.4381 54.6553 16.923 55.7384 19.157C51.6799 20.7686 47.9376 22.8132 44.5809 25.2533C42.9207 24.1069 40.6088 24.2485 39.102 25.7551C37.7295 27.1269 37.4944 29.1613 38.3165 30.7599C37.2244 31.9271 36.2106 33.1461 35.2941 34.3965C34.8172 35.0514 34.9774 35.9414 35.6038 36.4003C36.2517 36.8738 37.148 36.7214 37.6078 36.0907C38.3985 35.0117 39.2686 33.9563 40.2033 32.9409L41.3965 34.1342C43.0779 35.8152 45.7993 35.8156 47.4809 34.1342C49.1627 32.4531 49.1625 29.7309 47.4811 28.0497L46.6962 27.2646C49.8651 25.0179 53.394 23.1371 57.219 21.6561C60.3671 26.0899 65.5346 29.0462 71.2458 29.0462H79.7425L80.2205 29.5242C80.7806 30.0843 81.6887 30.0843 82.2486 29.5242C82.8087 28.9639 82.8087 28.056 82.2486 27.4959L81.7707 27.0181V18.0657C89.8861 18.622 97.2737 20.8006 103.545 24.1245C102.822 24.8927 102.382 25.9281 102.382 27.0764C102.382 29.4487 104.312 31.3789 106.684 31.3789H109.929C110.927 31.3789 111.868 31.0366 112.617 30.4358C119.812 36.9543 123.758 45.1959 123.762 53.7884C123.749 58.632 119.792 62.5711 114.941 62.5711H40.4148C35.5635 62.5711 31.607 58.632 31.5938 53.7884C31.5957 49.3002 32.6531 44.9215 34.7372 40.772C35.0912 40.0666 34.8061 39.2021 34.0986 38.8464C33.3847 38.4898 32.5285 38.7766 32.1732 39.4853C29.9412 43.922 28.7255 48.7638 28.7255 53.7922V53.7962C28.7561 60.0772 33.7446 65.1466 39.8835 65.4262C39.5457 67.9704 39.8023 70.3859 40.622 72.6729C35.8306 74.6706 32.5499 79.3851 32.5499 84.7832C32.5499 90.2053 35.8373 94.8722 40.5639 96.8739C42.1816 97.5568 43.8988 97.9048 45.6714 97.9048H102.187C102.978 97.9048 103.621 97.2604 103.621 96.4706C103.621 95.6788 102.978 95.0365 102.187 95.0365H45.6714C40.0038 95.0365 35.4182 90.4501 35.4182 84.7832C35.4145 80.5806 38.0083 76.8187 41.8441 75.2742C44.9442 80.525 50.8883 83.4422 57.0224 82.6075C60.2864 82.1628 63.5516 83.5149 65.5384 86.1378C71.6273 94.1745 83.7193 94.1857 89.8171 86.1378C91.8041 83.5149 95.067 82.162 98.3331 82.6075C104.47 83.4443 110.412 80.5253 113.512 75.2746C117.347 76.8191 119.939 80.581 119.937 84.7832C119.937 90.4508 115.351 95.0365 109.684 95.0365H107.951C107.162 95.0365 106.517 95.6788 106.517 96.4706C106.517 97.2604 107.162 97.9048 107.951 97.9048H109.684C116.909 97.9048 122.806 92.0532 122.806 84.7832C122.806 79.4346 119.569 74.6874 114.734 72.6736C115.556 70.3817 115.809 67.97 115.472 65.426C121.63 65.1453 126.6 60.0596 126.63 53.796V53.792C126.63 43.6298 121.696 34.6147 114.14 27.9449ZM43.4246 32.1063L41.193 29.8745L41.1911 29.8724L41.1892 29.8707L41.1301 29.8116C40.5695 29.2513 40.5695 28.344 41.1301 27.7837C41.6891 27.2244 42.5962 27.2217 43.1584 27.7839L45.4526 30.0784C46.0131 30.6385 46.0133 31.5458 45.4528 32.1063C44.8922 32.6663 43.9852 32.6667 43.4246 32.1063ZM90.4936 2.8683H93.7815C96.0237 2.8683 98.4438 4.42484 98.4438 6.93938V11.8407C98.4438 14.0214 97.9158 16.1847 96.9117 18.1615C94.227 17.2523 91.4606 16.5411 88.6306 16.0292L91.0067 13.6531C91.5668 13.0929 91.5668 12.1851 91.0067 11.6249C90.4466 11.0648 89.5385 11.0648 88.9786 11.6249L85.105 15.4984C83.9851 15.3638 82.8565 15.26 81.7206 15.1865C81.5195 12.5592 80.7123 10.1224 79.4323 8.00372C82.0591 4.77228 86.1233 2.8683 90.4936 2.8683ZM66.3771 11.625C65.817 11.065 64.9089 11.065 64.349 11.625C63.789 12.1853 63.789 13.093 64.349 13.6533L76.874 26.1782H71.2456C63.4759 26.1782 56.9119 19.6125 56.9119 11.8407V6.93938C56.9119 4.42484 59.332 2.8683 61.5742 2.8683H64.8621C72.735 2.8683 78.9022 8.85063 78.9022 16.4876V24.1502L66.3771 11.625ZM109.929 28.5106H106.683C105.893 28.5106 105.25 27.8673 105.25 27.0764C105.25 26.2928 105.864 25.6642 106.648 25.6455C106.671 25.6449 106.694 25.644 106.718 25.6424H109.928C110.719 25.6424 111.363 26.2857 111.363 27.0764C111.363 27.8552 110.73 28.5106 109.929 28.5106ZM60.5332 65.4394C62.6627 67.4046 65.0787 68.9722 67.7222 70.1035C68.4511 70.415 69.2934 70.0769 69.6049 69.3491C69.9164 68.6209 69.5787 67.778 68.8506 67.4663C67.5489 66.9093 66.311 66.2299 65.1422 65.4394H90.2139C89.0451 66.2299 87.8072 66.9093 86.5057 67.4663C85.7774 67.778 85.4399 68.6209 85.7514 69.3491C86.0629 70.0773 86.9054 70.415 87.6341 70.1035C90.2775 68.9722 92.6936 67.4046 94.8232 65.4394H102.522C96.6681 73.2664 87.5651 77.8678 77.6782 77.8678C67.791 77.8676 58.6882 73.2662 52.8345 65.4394H60.5332ZM98.7209 79.7654C94.4286 79.1805 90.1424 80.9585 87.5309 84.4058C82.5849 90.9335 72.774 90.9386 67.8248 84.4058C65.2132 80.9586 60.9258 79.1803 56.6346 79.7654C51.3086 80.4926 46.1607 77.7335 43.8233 72.9022C42.7698 70.7247 42.3887 68.2869 42.7211 65.8517C42.7396 65.7151 42.7551 65.5775 42.7689 65.4394H49.3319C55.4898 74.7935 65.9933 80.7361 77.6779 80.7361C89.3654 80.7361 99.8674 74.791 106.024 65.4394H112.587C112.659 66.1639 113.271 69.3099 111.533 72.9022L111.523 72.9228C109.18 77.7416 104.039 80.4921 98.7209 79.7654Z" fill="black"/>
<path d="M114.408 47.52C116.09 45.839 116.089 43.117 114.408 41.4354L112.113 39.1408C110.432 37.4594 107.71 37.4592 106.029 39.1408C104.347 40.8218 104.347 43.5438 106.029 45.2254L108.323 47.52C110.005 49.2011 112.726 49.2014 114.408 47.52ZM108.057 41.169C108.617 40.6084 109.525 40.6084 110.085 41.169L112.38 43.4637C112.94 44.0238 112.94 44.9311 112.38 45.4916C111.819 46.0518 110.912 46.052 110.352 45.4916L108.057 43.1969C107.496 42.6368 107.496 41.7293 108.057 41.169Z" fill="black"/>
<path d="M56.6939 29.5795L54.3993 31.8742C52.7181 33.5558 52.7179 36.2766 54.3993 37.9588C56.0809 39.64 58.8017 39.6402 60.4839 37.9588L62.7786 35.6642C64.4596 33.9828 64.46 31.2613 62.7786 29.5797C61.0973 27.8979 58.3757 27.8979 56.6939 29.5795ZM60.7503 33.6359L58.4558 35.9305C57.8952 36.4908 56.9884 36.491 56.4277 35.9307C55.8675 35.3701 55.8673 34.4631 56.4277 33.9026L58.7224 31.608C59.283 31.0473 60.1896 31.0471 60.7503 31.6078C61.3106 32.1685 61.3107 33.0754 60.7503 33.6359Z" fill="black"/>
<path d="M94.9036 34.1345L97.1982 31.8398C98.8792 30.1584 98.8796 27.437 97.1982 25.7554C95.517 24.0734 92.7954 24.0734 91.1136 25.7552L88.8189 28.0499C87.1377 29.7314 87.1375 32.4523 88.8189 34.1345C90.5003 35.8155 93.2214 35.8159 94.9036 34.1345ZM90.8472 30.0781L93.1418 27.7835C93.7025 27.2228 94.6091 27.2226 95.1697 27.7833C95.73 28.3439 95.7302 29.2509 95.1697 29.8114L92.8753 32.106C92.3146 32.6663 91.4079 32.6665 90.8472 32.1062C90.2869 31.5455 90.2867 30.6386 90.8472 30.0781Z" fill="black"/>
<path d="M45.5685 51.3443C47.2503 49.6632 47.2501 46.9412 45.5687 45.2596L43.2741 42.965C41.5923 41.2836 38.871 41.2834 37.1896 42.965C35.5079 44.646 35.508 47.368 37.1894 49.0496L39.4841 51.3443C41.1655 53.0253 43.8867 53.0257 45.5685 51.3443ZM39.2177 44.9933C39.778 44.4326 40.6853 44.4326 41.2456 44.9933L43.5402 47.2879C44.1007 47.848 44.1009 48.7553 43.5404 49.3158C42.9798 49.8761 42.0728 49.8763 41.5124 49.3158L39.2177 47.0211C38.6571 46.4611 38.6571 45.5535 39.2177 44.9933Z" fill="black"/>
<path d="M16.1726 58.9644V91.8737C16.1726 93.1937 15.637 94.3913 14.7722 95.256C13.9056 96.1208 12.7118 96.6564 11.3899 96.6564C10.7088 96.6564 10.0622 96.5149 9.47675 96.2585C10.0296 96.0174 10.5251 95.675 10.946 95.256C11.8107 94.3913 12.3464 93.1937 12.3464 91.8737V58.9644C12.3464 57.6635 11.2904 56.6074 9.98946 56.6074H13.8157C15.1166 56.6074 16.1726 57.6635 16.1726 58.9644Z" fill="#D82356"/>
<path d="M21.344 23.1438V31.1635C21.344 33.708 19.9838 36.0592 17.7779 37.3276L14.6825 39.1049V49.3132C15.6008 50.1837 16.1728 51.4157 16.1728 52.7817V54.2509C16.1728 55.5518 15.1168 56.6079 13.8159 56.6079H8.96426C7.66143 56.6079 6.60731 55.5518 6.60731 54.2509V52.7817C6.60731 51.4119 7.18315 50.1779 8.10527 49.3055V39.1049L5.00604 37.3257C2.7964 36.0592 1.43427 33.708 1.43427 31.1616V23.1438H21.344Z" fill="#DCF1FF"/>
<path d="M21.344 25.3743V31.1633C21.344 33.7078 19.9837 36.059 17.7779 37.3274L14.6825 39.1046V49.313C15.6008 50.1834 16.1728 51.4155 16.1728 52.7815V54.2507C16.1728 55.5516 15.1168 56.6077 13.8159 56.6077H8.96425C7.66142 56.6077 6.6073 55.5516 6.6073 54.2507V53.3554H12.3466C12.6642 53.3554 12.9206 53.0971 12.9206 52.7815C12.9206 52.4945 12.8459 52.2611 12.7484 52.0755C12.6508 51.8899 12.5322 51.756 12.4423 51.6719C11.7956 51.0577 11.4302 50.2045 11.4302 49.313V37.8382C11.4302 36.6731 12.052 35.5979 13.0621 35.0182L16.1575 33.2391C17.3513 32.5542 21.344 29.8969 21.344 25.3743Z" fill="#B6E5FF"/>
<path d="M6.60712 91.8737C6.60712 94.5151 8.74846 96.6565 11.3899 96.6565C14.0313 96.6565 16.1727 94.5151 16.1727 91.8737V58.9648C16.1727 57.6629 15.1174 56.6077 13.8155 56.6077H8.96426C7.66239 56.6077 6.60712 57.6629 6.60712 58.9648V91.8737Z" fill="#FF485E"/>
<path d="M21.3449 0.186768C20.5523 0.186768 19.9101 0.829189 19.9101 1.6216V21.7098H16.1174V1.6216C16.1174 0.829189 15.4751 0.186768 14.6825 0.186768C13.8899 0.186768 13.2477 0.829189 13.2477 1.6216V21.7098H9.53952V1.6216C9.53952 0.829189 8.89729 0.186768 8.10469 0.186768C7.31209 0.186768 6.66986 0.829189 6.66986 1.6216V21.7098H2.86966V1.6216C2.86966 0.829189 2.22743 0.186768 1.43483 0.186768C0.64223 0.186768 0 0.829189 0 1.6216V31.1615C0 34.2133 1.64451 37.0524 4.29148 38.5708L6.66986 39.9352V48.7351C5.71158 49.8554 5.17228 51.2977 5.17228 52.7815V54.2506C5.17228 55.1408 5.48067 55.9602 5.99587 56.6078C5.48048 57.2553 5.17228 58.0747 5.17228 58.9649V81.4106C5.17228 82.203 5.81451 82.8455 6.60711 82.8455C7.39971 82.8455 8.04194 82.203 8.04194 81.4106V58.9647C8.04194 58.4562 8.45575 58.0424 8.96425 58.0424H13.8155C14.324 58.0424 14.7376 58.4562 14.7376 58.9647V91.8736C14.7376 93.7196 13.2356 95.2215 11.3897 95.2215C9.54373 95.2215 8.04175 93.7196 8.04175 91.8736V88.0912C8.04175 87.2988 7.39952 86.6564 6.60692 86.6564C5.81432 86.6564 5.17209 87.2988 5.17209 88.0912V91.8736C5.17209 95.3019 7.96121 98.0912 11.3897 98.0912C14.8182 98.0912 17.6073 95.3019 17.6073 91.8736V58.9647C17.6073 58.0745 17.2989 57.2552 16.7837 56.6076C17.2991 55.96 17.6073 55.1406 17.6073 54.2504V52.7814C17.6073 51.3018 17.0705 49.8625 16.1172 48.7435V39.9346L18.4917 38.571C21.1364 37.052 22.7794 34.2137 22.7794 31.1638L22.7798 1.6216C22.7798 0.829189 22.1373 0.186768 21.3449 0.186768ZM19.9099 31.1638C19.9099 33.189 18.8189 35.0738 17.0626 36.0824L13.9678 37.8599C13.5222 38.1159 13.2475 38.5903 13.2475 39.1042V49.3123C13.2475 49.7058 13.4092 50.082 13.6944 50.3529C14.3672 50.9916 14.7376 51.8541 14.7376 52.7814V54.2504C14.7376 54.7589 14.324 55.1727 13.8155 55.1727H8.96425C8.45575 55.1727 8.04194 54.7589 8.04194 54.2504V52.7814C8.04194 51.8516 8.41423 50.9874 9.09032 50.3481C9.3771 50.077 9.53952 49.6999 9.53952 49.3054V39.1042C9.53952 38.5901 9.26442 38.1155 8.81866 37.8597L5.71943 36.0816C3.96166 35.0734 2.86966 33.1881 2.86966 31.1617V24.5797H19.9097L19.9099 31.1638Z" fill="black"/>
<path d="M151.806 60.2476V61.7168C151.806 63.0178 150.75 64.0738 149.449 64.0738H144.598C143.295 64.0738 142.241 63.0178 142.241 61.7168V60.2476C142.241 58.8778 142.815 57.6438 143.737 56.7715V50.0125H138.944V14.8782C138.944 11.5513 140.146 8.46549 142.168 6.07601C143.486 4.51683 145.152 3.25418 147.064 2.40859C148.083 1.95901 149.174 1.62804 150.316 1.43481V56.7791C151.232 57.6496 151.806 58.8816 151.806 60.2476Z" fill="#DCF1FF"/>
<path d="M151.806 60.2476V61.7168C151.806 63.0178 150.75 64.0738 149.449 64.0738H144.598C143.295 64.0738 142.241 63.0178 142.241 61.7168V60.8215H147.98C148.298 60.8215 148.554 60.5652 148.554 60.2476C148.554 59.9606 148.479 59.7272 148.382 59.5416C148.284 59.3561 148.166 59.2222 148.076 59.138C147.429 58.5239 147.064 57.6706 147.064 56.7791V2.40859C148.083 1.95901 149.174 1.62804 150.316 1.43481V56.7791C151.232 57.6496 151.806 58.8816 151.806 60.2476Z" fill="#B6E5FF"/>
<path d="M142.24 91.6872C142.24 94.3286 144.381 96.47 147.023 96.47C149.664 96.47 151.806 94.3286 151.806 91.6872V66.4311C151.806 65.1292 150.75 64.074 149.448 64.074H144.597C143.295 64.074 142.24 65.1292 142.24 66.4311V91.6872Z" fill="#FFE780"/>
<path d="M151.806 66.4307V91.6871C151.806 93.0072 151.27 94.2048 150.405 95.0695C149.539 95.9342 148.345 96.4699 147.023 96.4699C146.342 96.4699 145.695 96.3283 145.11 96.072C145.663 95.8309 146.158 95.4885 146.579 95.0695C147.444 94.2048 147.979 93.0072 147.979 91.6871V66.4307C147.979 65.1298 146.923 64.0737 145.622 64.0737H149.449C150.75 64.0737 151.806 65.1298 151.806 66.4307Z" fill="#FFCC83"/>
<path d="M152.596 60.2473C152.596 58.7676 152.059 57.3285 151.105 56.2095V20.5649C151.105 19.7725 150.463 19.1301 149.671 19.1301C148.878 19.1301 148.236 19.7725 148.236 20.5649V56.7783C148.236 57.1718 148.397 57.5479 148.683 57.8188C149.356 58.4574 149.726 59.3199 149.726 60.2471V61.7162C149.726 62.2247 149.312 62.6385 148.804 62.6385H143.953C143.444 62.6385 143.03 62.2247 143.03 61.7162V60.2471C143.03 59.3174 143.403 58.4532 144.079 57.8139C144.366 57.5428 144.528 57.1657 144.528 56.7712V50.0118C144.528 49.2194 143.886 48.577 143.093 48.577H139.735V14.8786C139.735 9.48264 143.222 4.83551 148.236 3.25241V14.0112C148.236 14.8036 148.878 15.446 149.671 15.446C150.463 15.446 151.106 14.8036 151.106 14.0112V1.43515C151.106 1.01293 150.92 0.612324 150.598 0.339514C150.275 0.0668966 149.849 -0.0499943 149.433 0.0202168C142.151 1.24537 136.866 7.49415 136.866 14.8786V50.0122C136.866 50.8046 137.508 51.447 138.301 51.447H141.659V56.2011C140.7 57.3214 140.161 58.7637 140.161 60.2475V61.7166C140.161 62.6068 140.469 63.4262 140.985 64.0737C140.469 64.7213 140.161 65.5407 140.161 66.4309V91.6874C140.161 95.1156 142.95 97.905 146.379 97.905C149.807 97.905 152.596 95.1156 152.596 91.6874V66.4307C152.596 65.5405 152.288 64.7211 151.773 64.0736C152.288 63.426 152.596 62.6066 152.596 61.7164V60.2473ZM149.726 91.6872C149.726 93.5331 148.224 95.0351 146.378 95.0351C144.532 95.0351 143.03 93.5331 143.03 91.6872V66.4307C143.03 65.9222 143.444 65.5084 143.952 65.5084H148.804C149.312 65.5084 149.726 65.9222 149.726 66.4307V91.6872Z" fill="black"/>
<path d="M42.9703 73.9827C43.5596 73.3417 43.797 72.6007 43.5001 72.3278L16.0849 47.125C15.7881 46.8522 15.0692 47.1511 14.4802 47.7918C13.8909 48.4329 13.654 49.1736 13.9506 49.4463L41.3658 74.6491C41.6626 74.9225 42.381 74.6237 42.9703 73.9827Z" fill="black"/>
<path d="M113.103 73.6917C113.444 74.4932 113.967 75.0382 114.272 74.9085L142.454 62.94C142.759 62.8105 142.73 62.055 142.39 61.254C142.049 60.4525 141.526 59.908 141.221 60.0375L113.04 72.006C112.734 72.1353 112.763 72.8903 113.103 73.6917Z" fill="black"/>
</svg>
