<svg width="441" height="99" viewBox="0 0 441 99" fill="none" xmlns="http://www.w3.org/2000/svg">
<path d="M93.7817 1.43408H90.4938C81.9476 1.43408 75.0197 7.94131 75.0197 16.4875V27.6123H84.1105C92.6567 27.6123 99.8783 20.3869 99.8783 11.8407V6.93931C99.8782 3.73446 96.9865 1.43408 93.7817 1.43408V1.43408Z" fill="#70DCBA"/>
<path d="M109.685 73.0969H77.6781L65.9912 84.7837L77.6781 96.4707H109.685C116.139 96.4707 121.372 91.2384 121.372 84.7837C121.372 78.3293 116.139 73.0969 109.685 73.0969V73.0969Z" fill="#FFCE71"/>
<path d="M77.6781 73.0969H45.671C39.2166 73.0969 33.984 78.3295 33.984 84.7837C33.984 91.2382 39.2164 96.4707 45.671 96.4707H77.6781C71.2234 90.0163 71.2234 79.5514 77.6781 73.0969Z" fill="#FFB357"/>
<path d="M114.933 59.7989L106.349 51.2156H60.9723L56.2335 55.9544V70.5606L67.8457 82.1728H92.4393C94.296 81.2626 96.4123 80.8981 98.527 81.1865C107.58 82.4212 115.292 74.7221 114.056 65.6579C113.779 63.6294 114.103 61.5998 114.933 59.7989V59.7989Z" fill="#70DCBA"/>
<path d="M60.9723 51.2156H49.0063L40.423 59.7989C41.2531 61.5996 41.5768 63.6294 41.3003 65.6579C40.0654 74.7102 47.7647 82.4223 56.8287 81.1863C60.6028 80.6715 64.3817 82.2355 66.6819 85.2715C72.2036 92.5601 83.1605 92.549 88.6742 85.2715C89.6853 83.9366 90.9826 82.8868 92.4395 82.1726C77.2742 78.0063 65.3751 66.277 60.9723 51.2156V51.2156Z" fill="#30CD9C"/>
<path d="M77.6781 79.3018C92.6393 79.3018 105.236 69.1866 109.008 55.4226L46.3481 55.4224C50.1202 69.1866 62.7168 79.3018 77.6781 79.3018V79.3018Z" fill="#EA5B70"/>
<path d="M94.5632 63.7028C90.0529 68.2131 84.0564 70.6968 77.678 70.6968C71.2995 70.6968 65.303 68.2129 60.7929 63.7026C58.3973 61.307 56.5731 58.4914 55.3894 55.4224H99.9669C98.783 58.4916 96.959 61.3072 94.5632 63.7028V63.7028Z" fill="#FF8E9E"/>
<path d="M77.6778 16.4875C51.4342 16.4875 30.1596 33.2189 30.1596 53.7914C30.1799 59.4196 34.7948 64.0058 40.4228 64.0058H77.6778V16.4875Z" fill="#FFB357"/>
<path d="M77.6778 16.4875C64.5561 29.6095 64.5561 50.8841 77.6778 64.0058H114.933C120.561 64.0058 125.176 59.4196 125.196 53.7914C125.196 33.2189 103.921 16.4875 77.6778 16.4875V16.4875Z" fill="#FFCE71"/>
<path d="M64.8621 1.43408H61.5742C58.3694 1.43408 55.4778 3.73446 55.4778 6.93931V11.8407C55.4778 20.3869 62.6996 27.6123 71.2456 27.6123H80.3364V16.4875C80.3362 7.94131 73.4081 1.43408 64.8621 1.43408V1.43408Z" fill="#30CD9C"/>
<path d="M55.9744 49.1379C55.9744 46.4977 58.5427 44.3574 61.711 44.3574C64.8792 44.3574 67.4476 46.4977 67.4476 49.1379C67.4476 51.7781 64.8792 53.9184 61.711 53.9184C58.5427 53.9184 55.9744 51.7781 55.9744 49.1379Z" fill="#FF8E9E"/>
<path d="M87.9081 49.1379C87.9081 46.4977 90.4765 44.3574 93.6448 44.3574C96.813 44.3574 99.3814 46.4977 99.3814 49.1379C99.3814 51.7781 96.813 53.9184 93.6448 53.9184C90.4765 53.9184 87.9081 51.7781 87.9081 49.1379Z" fill="#FF8E9E"/>
<path d="M44.1722 26.7693C43.0521 25.6493 41.2362 25.6491 40.1159 26.7693C38.9957 27.8892 38.9957 29.7054 40.1159 30.8256L42.4105 33.1203C43.5305 34.2402 45.3467 34.2402 46.4669 33.1203C47.5871 32.0003 47.5871 30.1841 46.4669 29.0639L44.1722 26.7693Z" fill="#FCE3A0"/>
<path d="M113.394 42.4494L111.099 40.1548C109.979 39.0348 108.163 39.0346 107.043 40.1548C105.923 41.2747 105.923 43.0909 107.043 44.2111L109.338 46.5057C110.458 47.6257 112.274 47.6257 113.394 46.5057C114.514 45.3856 114.514 43.5694 113.394 42.4494Z" fill="#FCE3A0"/>
<path d="M57.7082 30.5937L55.4135 32.8883C54.2935 34.0085 54.2933 35.8243 55.4135 36.9447C56.5335 38.0649 58.3497 38.0649 59.4699 36.9447L61.7645 34.65C62.8845 33.5301 62.8845 31.7139 61.7645 30.5937C60.6443 29.4733 58.8281 29.4733 57.7082 30.5937Z" fill="#FCE3A0"/>
<path d="M92.1278 26.7692L89.8332 29.0639C88.7132 30.184 88.713 31.9999 89.8332 33.1202C90.9531 34.2404 92.7693 34.2404 93.8895 33.1202L96.1842 30.8256C97.3041 29.7056 97.3041 27.8894 96.1842 26.7692C95.064 25.6489 93.2478 25.6489 92.1278 26.7692Z" fill="#FCE3A0"/>
<path d="M109.929 29.9446C111.513 29.9446 112.797 28.6604 112.797 27.0763C112.797 25.4922 111.513 24.208 109.929 24.208H106.684C105.1 24.208 103.815 25.4921 103.815 27.0763C103.815 28.6604 105.099 29.9446 106.684 29.9446H109.929Z" fill="#FCE3A0"/>
<path d="M42.26 43.9792C41.1399 42.8592 39.324 42.859 38.2037 43.9792C37.0835 45.0992 37.0835 46.9154 38.2037 48.0356L40.4983 50.3302C41.6183 51.4502 43.4345 51.4502 44.5547 50.3302C45.6748 49.2102 45.6748 47.394 44.5547 46.2739L42.26 43.9792Z" fill="#FCE3A0"/>
<path d="M65.117 48.1437C65.9092 48.1437 66.5511 47.5017 66.5511 46.7095V44.4149C66.5511 43.6226 65.9092 42.9807 65.117 42.9807C64.3248 42.9807 63.6828 43.6226 63.6828 44.4149V46.7095C63.6828 47.5015 64.3248 48.1437 65.117 48.1437Z" fill="black"/>
<path d="M81.9704 47.6377C82.4909 47.0406 82.4285 46.1348 81.8314 45.6142C81.2338 45.0937 80.328 45.1561 79.8079 45.7533C78.6288 47.1062 76.534 47.1046 75.3565 45.7533C74.836 45.1563 73.9299 45.0941 73.333 45.6142C72.736 46.1348 72.6736 47.0406 73.1939 47.6377C75.5163 50.3024 79.6507 50.2995 81.9704 47.6377V47.6377Z" fill="black"/>
<path d="M87.9871 48.0799C88.7793 48.0799 89.4213 47.438 89.4213 46.6457C89.4213 45.9704 89.9706 45.4208 90.646 45.4208C91.3214 45.4208 91.871 45.9704 91.871 46.6457C91.871 47.438 92.5129 48.0799 93.3051 48.0799C94.0974 48.0799 94.7393 47.438 94.7393 46.6457C94.7393 44.3886 92.903 42.5525 90.646 42.5525C88.389 42.5525 86.5529 44.3888 86.5529 46.6457C86.5529 47.4378 87.1951 48.0799 87.9871 48.0799Z" fill="black"/>
<path d="M114.14 27.9449C114.697 25.2577 112.628 22.7741 109.929 22.7741H106.998C104.677 21.3989 102.204 20.1869 99.6196 19.1595C100.73 16.863 101.312 14.3633 101.312 11.8409V6.93938C101.312 3.11307 97.9338 0 93.7815 0H90.4936C85.5144 0 80.8567 2.07627 77.6866 5.63125C74.6091 2.16194 70.0422 0 64.8621 0H61.5742C57.4219 0 54.0436 3.11307 54.0436 6.93938V11.8407C54.0436 14.4381 54.6553 16.923 55.7384 19.157C51.6799 20.7686 47.9376 22.8132 44.5809 25.2533C42.9207 24.1069 40.6088 24.2485 39.102 25.7551C37.7295 27.1269 37.4944 29.1613 38.3165 30.7599C37.2244 31.9271 36.2106 33.1461 35.2941 34.3965C34.8172 35.0514 34.9774 35.9414 35.6038 36.4003C36.2517 36.8738 37.148 36.7214 37.6078 36.0907C38.3985 35.0117 39.2686 33.9563 40.2033 32.9409L41.3965 34.1342C43.0779 35.8152 45.7993 35.8156 47.4809 34.1342C49.1627 32.4531 49.1625 29.7309 47.4811 28.0497L46.6962 27.2646C49.8651 25.0179 53.394 23.1371 57.219 21.6561C60.3671 26.0899 65.5346 29.0462 71.2458 29.0462H79.7425L80.2205 29.5242C80.7806 30.0843 81.6887 30.0843 82.2486 29.5242C82.8087 28.9639 82.8087 28.056 82.2486 27.4959L81.7707 27.0181V18.0657C89.8861 18.622 97.2737 20.8006 103.545 24.1245C102.822 24.8927 102.382 25.9281 102.382 27.0764C102.382 29.4487 104.312 31.3789 106.684 31.3789H109.929C110.927 31.3789 111.868 31.0366 112.617 30.4358C119.812 36.9543 123.758 45.1959 123.762 53.7884C123.749 58.632 119.792 62.5711 114.941 62.5711H40.4148C35.5635 62.5711 31.607 58.632 31.5938 53.7884C31.5957 49.3002 32.6531 44.9215 34.7372 40.772C35.0912 40.0666 34.8061 39.2021 34.0986 38.8464C33.3847 38.4898 32.5285 38.7766 32.1732 39.4853C29.9412 43.922 28.7255 48.7638 28.7255 53.7922V53.7962C28.7561 60.0772 33.7446 65.1466 39.8835 65.4262C39.5457 67.9704 39.8023 70.3859 40.622 72.6729C35.8306 74.6706 32.5499 79.3851 32.5499 84.7832C32.5499 90.2053 35.8373 94.8722 40.5639 96.8739C42.1816 97.5568 43.8988 97.9048 45.6714 97.9048H102.187C102.978 97.9048 103.621 97.2604 103.621 96.4706C103.621 95.6788 102.978 95.0365 102.187 95.0365H45.6714C40.0038 95.0365 35.4182 90.4501 35.4182 84.7832C35.4145 80.5806 38.0083 76.8187 41.8441 75.2742C44.9442 80.525 50.8883 83.4422 57.0224 82.6075C60.2864 82.1628 63.5516 83.5149 65.5384 86.1378C71.6273 94.1745 83.7193 94.1857 89.8171 86.1378C91.8041 83.5149 95.067 82.162 98.3331 82.6075C104.47 83.4443 110.412 80.5253 113.512 75.2746C117.347 76.8191 119.939 80.581 119.937 84.7832C119.937 90.4508 115.351 95.0365 109.684 95.0365H107.951C107.162 95.0365 106.517 95.6788 106.517 96.4706C106.517 97.2604 107.162 97.9048 107.951 97.9048H109.684C116.909 97.9048 122.806 92.0532 122.806 84.7832C122.806 79.4346 119.569 74.6874 114.734 72.6736C115.556 70.3817 115.809 67.97 115.472 65.426C121.63 65.1453 126.6 60.0596 126.63 53.796V53.792C126.63 43.6298 121.696 34.6147 114.14 27.9449V27.9449ZM43.4246 32.1063L41.193 29.8745C41.1923 29.8738 41.1917 29.873 41.1911 29.8724C41.1905 29.8719 41.1898 29.8713 41.1892 29.8707L41.1301 29.8116C40.5695 29.2513 40.5695 28.344 41.1301 27.7837C41.6891 27.2244 42.5962 27.2217 43.1584 27.7839L45.4526 30.0784C46.0131 30.6385 46.0133 31.5458 45.4528 32.1063C44.8922 32.6663 43.9852 32.6667 43.4246 32.1063V32.1063ZM90.4936 2.8683H93.7815C96.0237 2.8683 98.4438 4.42484 98.4438 6.93938V11.8407C98.4438 14.0214 97.9158 16.1847 96.9117 18.1615C94.227 17.2523 91.4606 16.5411 88.6306 16.0292L91.0067 13.6531C91.5668 13.0929 91.5668 12.1851 91.0067 11.6249C90.4466 11.0648 89.5385 11.0648 88.9786 11.6249L85.105 15.4984C83.9851 15.3638 82.8565 15.26 81.7206 15.1865C81.5195 12.5592 80.7123 10.1224 79.4323 8.00372C82.0591 4.77228 86.1233 2.8683 90.4936 2.8683V2.8683ZM66.3771 11.625C65.817 11.065 64.9089 11.065 64.349 11.625C63.789 12.1853 63.789 13.093 64.349 13.6533L76.874 26.1782H71.2456C63.4759 26.1782 56.9119 19.6125 56.9119 11.8407V6.93938C56.9119 4.42484 59.332 2.8683 61.5742 2.8683H64.8621C72.735 2.8683 78.9022 8.85063 78.9022 16.4876V24.1502L66.3771 11.625ZM109.929 28.5106H106.683C105.893 28.5106 105.25 27.8673 105.25 27.0764C105.25 26.2928 105.864 25.6642 106.648 25.6455C106.671 25.6449 106.694 25.644 106.718 25.6424H109.928C110.719 25.6424 111.363 26.2857 111.363 27.0764C111.363 27.8552 110.73 28.5106 109.929 28.5106V28.5106ZM60.5332 65.4394C62.6627 67.4046 65.0787 68.9722 67.7222 70.1035C68.4511 70.415 69.2934 70.0769 69.6049 69.3491C69.9164 68.6209 69.5787 67.778 68.8506 67.4663C67.5489 66.9093 66.311 66.2299 65.1422 65.4394H90.2139C89.0451 66.2299 87.8072 66.9093 86.5057 67.4663C85.7774 67.778 85.4399 68.6209 85.7514 69.3491C86.0629 70.0773 86.9054 70.415 87.6341 70.1035C90.2775 68.9722 92.6936 67.4046 94.8232 65.4394H102.522C96.6681 73.2664 87.5651 77.8678 77.6782 77.8678C67.791 77.8676 58.6882 73.2662 52.8345 65.4394H60.5332ZM98.7209 79.7654C94.4286 79.1805 90.1424 80.9585 87.5309 84.4058C82.5849 90.9335 72.774 90.9386 67.8248 84.4058C65.2132 80.9586 60.9258 79.1803 56.6346 79.7654C51.3086 80.4926 46.1607 77.7335 43.8233 72.9022C42.7698 70.7247 42.3887 68.2869 42.7211 65.8517C42.7396 65.7151 42.7551 65.5775 42.7689 65.4394H49.3319C55.4898 74.7935 65.9933 80.7361 77.6779 80.7361C89.3654 80.7361 99.8674 74.791 106.024 65.4394H112.587C112.659 66.1639 113.271 69.3099 111.533 72.9022C111.532 72.9039 111.523 72.9211 111.523 72.9228C109.18 77.7416 104.039 80.4921 98.7209 79.7654V79.7654Z" fill="black"/>
<path d="M114.408 47.52C116.09 45.839 116.089 43.117 114.408 41.4354L112.113 39.1408C110.432 37.4594 107.71 37.4592 106.029 39.1408C104.347 40.8218 104.347 43.5438 106.029 45.2254L108.323 47.52C110.005 49.2011 112.726 49.2014 114.408 47.52ZM108.057 41.169C108.617 40.6084 109.525 40.6084 110.085 41.169L112.38 43.4637C112.94 44.0238 112.94 44.9311 112.38 45.4916C111.819 46.0518 110.912 46.052 110.352 45.4916L108.057 43.1969C107.496 42.6368 107.496 41.7293 108.057 41.169Z" fill="black"/>
<path d="M56.6939 29.5795L54.3993 31.8742C52.7181 33.5558 52.7179 36.2766 54.3993 37.9588C56.0809 39.64 58.8017 39.6402 60.4839 37.9588L62.7786 35.6642C64.4596 33.9828 64.46 31.2613 62.7786 29.5797C61.0973 27.8979 58.3757 27.8979 56.6939 29.5795ZM60.7503 33.6359L58.4558 35.9305C57.8952 36.4908 56.9884 36.491 56.4277 35.9307C55.8675 35.3701 55.8673 34.4631 56.4277 33.9026L58.7224 31.608C58.7224 31.6078 58.7224 31.6078 58.7224 31.6078C59.283 31.0471 60.1896 31.0471 60.7503 31.6078C61.3106 32.1685 61.3107 33.0754 60.7503 33.6359Z" fill="black"/>
<path d="M94.9036 34.1345L97.1982 31.8398C98.8792 30.1584 98.8796 27.437 97.1982 25.7554C95.517 24.0734 92.7954 24.0734 91.1136 25.7552L88.8189 28.0499C87.1377 29.7314 87.1375 32.4523 88.8189 34.1345C90.5003 35.8155 93.2214 35.8159 94.9036 34.1345ZM90.8472 30.0781L93.1418 27.7835C93.1418 27.7833 93.1418 27.7833 93.1418 27.7833C93.7025 27.2226 94.6091 27.2226 95.1697 27.7833C95.73 28.3439 95.7302 29.2509 95.1697 29.8114L92.8753 32.106C92.3146 32.6663 91.4079 32.6665 90.8472 32.1062C90.2869 31.5455 90.2867 30.6386 90.8472 30.0781Z" fill="black"/>
<path d="M45.5685 51.3443C47.2503 49.6632 47.2501 46.9412 45.5687 45.2596L43.2741 42.965C41.5923 41.2836 38.871 41.2834 37.1896 42.965C35.5079 44.646 35.508 47.368 37.1894 49.0496L39.4841 51.3443C41.1655 53.0253 43.8867 53.0257 45.5685 51.3443ZM39.2177 44.9933C39.778 44.4326 40.6853 44.4326 41.2456 44.9933L43.5402 47.2879C44.1007 47.848 44.1009 48.7553 43.5404 49.3158C42.9798 49.8761 42.0728 49.8763 41.5124 49.3158L39.2177 47.0211C38.6571 46.4611 38.6571 45.5535 39.2177 44.9933V44.9933Z" fill="black"/>
<path d="M16.1726 58.9644V91.8737C16.1726 93.1937 15.637 94.3913 14.7722 95.256C13.9056 96.1208 12.7118 96.6564 11.3899 96.6564C10.7088 96.6564 10.0622 96.5149 9.47675 96.2585C10.0296 96.0174 10.5251 95.675 10.946 95.256C11.8107 94.3913 12.3464 93.1937 12.3464 91.8737V58.9644C12.3464 57.6635 11.2904 56.6074 9.98946 56.6074H13.8157C15.1166 56.6074 16.1726 57.6635 16.1726 58.9644Z" fill="#D82356"/>
<path d="M21.344 23.1438V31.1635C21.344 33.708 19.9838 36.0592 17.7779 37.3276L14.6825 39.1049V49.3132C15.6008 50.1837 16.1728 51.4157 16.1728 52.7817V54.2509C16.1728 55.5518 15.1168 56.6079 13.8159 56.6079H8.96426C7.66143 56.6079 6.60731 55.5518 6.60731 54.2509V52.7817C6.60731 51.4119 7.18315 50.1779 8.10527 49.3055V39.1049L5.00604 37.3257C2.7964 36.0592 1.43427 33.708 1.43427 31.1616V23.1438H21.344Z" fill="#DCF1FF"/>
<path d="M21.344 25.3743V31.1633C21.344 33.7078 19.9837 36.059 17.7779 37.3274L14.6825 39.1046V49.313C15.6008 50.1834 16.1728 51.4155 16.1728 52.7815V54.2507C16.1728 55.5516 15.1168 56.6077 13.8159 56.6077H8.96425C7.66142 56.6077 6.6073 55.5516 6.6073 54.2507V53.3554H12.3466C12.6642 53.3554 12.9206 53.0971 12.9206 52.7815C12.9206 52.4945 12.8459 52.2611 12.7484 52.0755C12.6508 51.8899 12.5322 51.756 12.4423 51.6719C11.7956 51.0577 11.4302 50.2045 11.4302 49.313V37.8382C11.4302 36.6731 12.052 35.5979 13.0621 35.0182L16.1575 33.2391C17.3513 32.5542 21.344 29.8969 21.344 25.3743V25.3743Z" fill="#B6E5FF"/>
<path d="M6.60712 91.8737C6.60712 94.5151 8.74846 96.6565 11.3899 96.6565C14.0313 96.6565 16.1727 94.5151 16.1727 91.8737V58.9648C16.1727 57.6629 15.1174 56.6077 13.8155 56.6077H8.96426C7.66239 56.6077 6.60712 57.6629 6.60712 58.9648V91.8737Z" fill="#FF485E"/>
<path d="M21.3449 0.186768C20.5523 0.186768 19.9101 0.829189 19.9101 1.6216V21.7098H16.1174V1.6216C16.1174 0.829189 15.4751 0.186768 14.6825 0.186768C13.8899 0.186768 13.2477 0.829189 13.2477 1.6216V21.7098H9.53952V1.6216C9.53952 0.829189 8.89729 0.186768 8.10469 0.186768C7.31209 0.186768 6.66986 0.829189 6.66986 1.6216V21.7098H2.86966V1.6216C2.86966 0.829189 2.22743 0.186768 1.43483 0.186768C0.64223 0.186768 0 0.829189 0 1.6216V31.1615C0 34.2133 1.64451 37.0524 4.29148 38.5708L6.66986 39.9352V48.7351C5.71158 49.8554 5.17228 51.2977 5.17228 52.7815V54.2506C5.17228 55.1408 5.48067 55.9602 5.99587 56.6078C5.48048 57.2553 5.17228 58.0747 5.17228 58.9649V81.4106C5.17228 82.203 5.81451 82.8455 6.60711 82.8455C7.39971 82.8455 8.04194 82.203 8.04194 81.4106V58.9647C8.04194 58.4562 8.45575 58.0424 8.96425 58.0424H13.8155C14.324 58.0424 14.7376 58.4562 14.7376 58.9647V91.8736C14.7376 93.7196 13.2356 95.2215 11.3897 95.2215C9.54373 95.2215 8.04175 93.7196 8.04175 91.8736V88.0912C8.04175 87.2988 7.39952 86.6564 6.60692 86.6564C5.81432 86.6564 5.17209 87.2988 5.17209 88.0912V91.8736C5.17209 95.3019 7.96121 98.0912 11.3897 98.0912C14.8182 98.0912 17.6073 95.3019 17.6073 91.8736V58.9647C17.6073 58.0745 17.2989 57.2552 16.7837 56.6076C17.2991 55.96 17.6073 55.1406 17.6073 54.2504V52.7814C17.6073 51.3018 17.0705 49.8625 16.1172 48.7435V39.9346L18.4917 38.571C21.1364 37.052 22.7794 34.2137 22.7794 31.1638L22.7798 1.6216C22.7798 0.829189 22.1373 0.186768 21.3449 0.186768V0.186768ZM19.9099 31.1638C19.9099 33.189 18.8189 35.0738 17.0626 36.0824L13.9678 37.8599C13.5222 38.1159 13.2475 38.5903 13.2475 39.1042V49.3123C13.2475 49.7058 13.4092 50.082 13.6944 50.3529C14.3672 50.9916 14.7376 51.8541 14.7376 52.7814V54.2504C14.7376 54.7589 14.324 55.1727 13.8155 55.1727H8.96425C8.45575 55.1727 8.04194 54.7589 8.04194 54.2504V52.7814C8.04194 51.8516 8.41423 50.9874 9.09032 50.3481C9.3771 50.077 9.53952 49.6999 9.53952 49.3054V39.1042C9.53952 38.5901 9.26442 38.1155 8.81866 37.8597L5.71943 36.0816C3.96166 35.0734 2.86966 33.1881 2.86966 31.1617V24.5797H19.9097V31.1638H19.9099Z" fill="black"/>
<path d="M151.806 60.2476V61.7168C151.806 63.0178 150.75 64.0738 149.449 64.0738H144.598C143.295 64.0738 142.241 63.0178 142.241 61.7168V60.2476C142.241 58.8778 142.815 57.6438 143.737 56.7715V50.0125H138.944V14.8782C138.944 11.5513 140.146 8.46549 142.168 6.07601C143.486 4.51683 145.152 3.25418 147.064 2.40859C148.083 1.95901 149.174 1.62804 150.316 1.43481V56.7791C151.232 57.6496 151.806 58.8816 151.806 60.2476Z" fill="#DCF1FF"/>
<path d="M151.806 60.2476V61.7168C151.806 63.0178 150.75 64.0738 149.449 64.0738H144.598C143.295 64.0738 142.241 63.0178 142.241 61.7168V60.8215H147.98C148.298 60.8215 148.554 60.5652 148.554 60.2476C148.554 59.9606 148.479 59.7272 148.382 59.5416C148.284 59.3561 148.166 59.2222 148.076 59.138C147.429 58.5239 147.064 57.6706 147.064 56.7791V2.40859C148.083 1.95901 149.174 1.62804 150.316 1.43481V56.7791C151.232 57.6496 151.806 58.8816 151.806 60.2476V60.2476Z" fill="#B6E5FF"/>
<path d="M142.24 91.6872C142.24 94.3286 144.381 96.47 147.023 96.47C149.664 96.47 151.806 94.3286 151.806 91.6872V66.4311C151.806 65.1292 150.75 64.074 149.448 64.074H144.597C143.295 64.074 142.24 65.1292 142.24 66.4311V91.6872H142.24Z" fill="#FFE780"/>
<path d="M151.806 66.4307V91.6871C151.806 93.0072 151.27 94.2048 150.405 95.0695C149.539 95.9342 148.345 96.4699 147.023 96.4699C146.342 96.4699 145.695 96.3283 145.11 96.072C145.663 95.8309 146.158 95.4885 146.579 95.0695C147.444 94.2048 147.979 93.0072 147.979 91.6871V66.4307C147.979 65.1298 146.923 64.0737 145.622 64.0737H149.449C150.75 64.0737 151.806 65.1298 151.806 66.4307V66.4307Z" fill="#FFCC83"/>
<path d="M152.596 60.2473C152.596 58.7676 152.059 57.3285 151.105 56.2095V20.5649C151.105 19.7725 150.463 19.1301 149.671 19.1301C148.878 19.1301 148.236 19.7725 148.236 20.5649V56.7783C148.236 57.1718 148.397 57.5479 148.683 57.8188C149.356 58.4574 149.726 59.3199 149.726 60.2471V61.7162C149.726 62.2247 149.312 62.6385 148.804 62.6385H143.953C143.444 62.6385 143.03 62.2247 143.03 61.7162V60.2471C143.03 59.3174 143.403 58.4532 144.079 57.8139C144.366 57.5428 144.528 57.1657 144.528 56.7712V50.0118C144.528 49.2194 143.886 48.577 143.093 48.577H139.735V14.8786C139.735 9.48264 143.222 4.83551 148.236 3.25241V14.0112C148.236 14.8036 148.878 15.446 149.671 15.446C150.463 15.446 151.106 14.8036 151.106 14.0112V1.43515C151.106 1.01293 150.92 0.612324 150.598 0.339514C150.275 0.0668966 149.849 -0.0499943 149.433 0.0202168C142.151 1.24537 136.866 7.49415 136.866 14.8786V50.0122C136.866 50.8046 137.508 51.447 138.301 51.447H141.659V56.2011C140.7 57.3214 140.161 58.7637 140.161 60.2475V61.7166C140.161 62.6068 140.469 63.4262 140.985 64.0737C140.469 64.7213 140.161 65.5407 140.161 66.4309V91.6874C140.161 95.1156 142.95 97.905 146.379 97.905C149.807 97.905 152.596 95.1156 152.596 91.6874V66.4307C152.596 65.5405 152.288 64.7211 151.773 64.0736C152.288 63.426 152.596 62.6066 152.596 61.7164V60.2473H152.596ZM149.726 91.6872C149.726 93.5331 148.224 95.0351 146.378 95.0351C144.532 95.0351 143.03 93.5331 143.03 91.6872V66.4307C143.03 65.9222 143.444 65.5084 143.952 65.5084H148.804C149.312 65.5084 149.726 65.9222 149.726 66.4307V91.6872H149.726Z" fill="black"/>
<path d="M42.9703 73.9827C43.5596 73.3417 43.797 72.6007 43.5001 72.3278L16.0849 47.125C15.7881 46.8522 15.0692 47.1511 14.4802 47.7918C13.8909 48.4329 13.654 49.1736 13.9506 49.4463L41.3658 74.6491C41.6626 74.9225 42.381 74.6237 42.9703 73.9827Z" fill="black"/>
<path d="M113.103 73.6917C113.444 74.4932 113.967 75.0382 114.272 74.9085L142.454 62.94C142.759 62.8105 142.73 62.055 142.39 61.254C142.049 60.4525 141.526 59.908 141.221 60.0375L113.04 72.006C112.734 72.1353 112.763 72.8903 113.103 73.6917Z" fill="black"/>
<path d="M201.706 20.9548C199.826 19.4508 197.656 18.6989 195.196 18.6989C192.729 18.6989 189.521 19.1884 185.574 20.1675C186.177 22.2354 186.478 24.3386 186.478 26.4769C186.478 28.6232 186.424 30.3542 186.314 31.6702C187.927 31.3725 189.545 31.2237 191.166 31.2237C192.78 31.2237 194.358 31.5213 195.901 32.1166C195.901 33.7772 195.561 35.0775 194.879 36.0174C193.187 35.3751 191.233 35.054 189.016 35.054C188.382 35.054 187.348 35.1675 185.914 35.3947C185.053 41.2224 183.353 45.8555 180.815 49.2942C178.277 52.7328 175.297 54.4521 171.874 54.4521C169.806 54.4521 168.134 53.8333 166.857 52.5957C165.58 51.3503 164.942 49.6937 164.942 47.6258C164.942 44.8059 166.117 42.1271 168.467 39.5892C170.817 37.0514 173.907 35.0305 177.737 33.5266C178.003 32.3986 178.136 30.738 178.136 28.5448C178.136 26.3438 177.929 24.4169 177.514 22.7641C176.574 22.9835 175.52 23.0931 174.353 23.0931C172.136 23.0931 170.378 22.5879 169.078 21.5775C167.785 20.5592 167.139 19.2511 167.139 17.6532C167.139 16.0553 167.891 14.7511 169.395 13.7407C170.899 12.7224 172.853 12.2132 175.258 12.2132C178.908 12.2132 181.728 13.6232 183.717 16.443C186.647 14.8608 188.734 13.772 189.98 13.1767C193.027 11.6336 195.518 10.8621 197.452 10.8621C199.387 10.8621 200.918 11.7433 202.046 13.5057C203.174 15.2759 203.738 17.2694 203.738 19.4861C203.589 19.7916 202.912 20.2811 201.706 20.9548ZM171.028 49.0357C172.383 49.0357 173.605 47.9469 174.694 45.7694C175.783 43.5918 176.589 40.9208 177.114 37.7563C174.827 38.6649 172.9 39.9809 171.333 41.7041C169.775 43.4352 168.995 45.0722 168.995 46.6153C168.995 47.3673 169.183 47.9587 169.559 48.3895C169.935 48.8203 170.425 49.0357 171.028 49.0357ZM171.369 18.1349C171.369 18.738 171.678 19.2002 172.297 19.5213C172.916 19.8346 173.601 19.9913 174.353 19.9913C175.105 19.9913 175.783 19.8816 176.386 19.6623C175.446 17.8138 174.263 16.8895 172.837 16.8895C171.858 16.8895 171.369 17.3046 171.369 18.1349ZM206.727 52.9365C204.135 52.9365 202.106 52.0239 200.641 50.1989C199.168 48.3738 198.432 45.8242 198.432 42.55C198.432 38.3829 199.552 34.7955 201.792 31.7876C204.033 28.7798 207.127 27.2759 211.074 27.2759L213.095 27.3816C213.738 27.0448 214.454 26.8764 215.245 26.8764C218.214 26.8764 219.698 29.6767 219.698 35.2772C221.242 35.2067 222.8 34.9991 224.375 34.6545L225.279 34.4313L225.62 36.6284C224.383 37.161 222.71 37.631 220.603 38.0383L219.475 38.2733C218.762 42.2211 217.313 45.6519 215.128 48.5657C212.95 51.4796 210.15 52.9365 206.727 52.9365ZM209.77 48.084C211.353 48.084 212.774 47.0696 214.035 45.0409C215.289 43.0044 216.162 40.8581 216.655 38.6023C212.629 38.6023 210.616 37.0984 210.616 34.0905C210.616 32.8921 210.863 31.7641 211.356 30.7067L211.638 30.1427C211.482 30.0722 211.294 30.037 211.074 30.037C210.847 30.037 210.675 30.0722 210.557 30.1427C209.618 30.7459 208.736 32.1558 207.914 34.3725C207.084 36.597 206.668 39.1349 206.668 41.9861C206.668 46.0514 207.702 48.084 209.77 48.084ZM230.358 52.9365C227.765 52.9365 225.736 52.0239 224.271 50.1989C222.799 48.3738 222.062 45.8242 222.062 42.55C222.062 38.3829 223.183 34.7955 225.423 31.7876C227.663 28.7798 230.757 27.2759 234.705 27.2759L236.726 27.3816C237.368 27.0448 238.085 26.8764 238.876 26.8764C241.844 26.8764 243.329 29.6767 243.329 35.2772C244.872 35.2067 246.431 34.9991 248.005 34.6545L248.91 34.4313L249.25 36.6284C248.013 37.161 246.341 37.631 244.233 38.0383L243.106 38.2733C242.393 42.2211 240.944 45.6519 238.758 48.5657C236.581 51.4796 233.78 52.9365 230.358 52.9365ZM233.401 48.084C234.983 48.084 236.404 47.0696 237.666 45.0409C238.919 43.0044 239.792 40.8581 240.286 38.6023C236.26 38.6023 234.247 37.0984 234.247 34.0905C234.247 32.8921 234.493 31.7641 234.987 30.7067L235.269 30.1427C235.112 30.0722 234.924 30.037 234.705 30.037C234.478 30.037 234.305 30.0722 234.188 30.1427C233.248 30.7459 232.367 32.1558 231.544 34.3725C230.714 36.597 230.299 39.1349 230.299 41.9861C230.299 46.0514 231.333 48.084 233.401 48.084ZM271.189 46.8386L272.258 48.8125C269.062 51.5618 266.254 52.9365 263.834 52.9365C261.406 52.9365 260.003 51.7302 259.627 49.3177C258.5 50.4456 257.238 51.3307 255.844 51.973C254.458 52.6153 253.236 52.9365 252.178 52.9365C250.377 52.9365 248.838 52.1454 247.561 50.5631C246.284 48.9809 245.646 46.537 245.646 43.2315C245.646 38.2655 246.695 34.3647 248.795 31.5292C250.902 28.6937 253.283 27.2759 255.938 27.2759C258.586 27.2759 260.81 27.8751 262.612 29.0735C263.779 22.9874 264.362 18.1937 264.362 14.6923L264.08 12.3307C266.9 11.3516 269.665 10.8621 272.376 10.8621C272.673 11.4965 272.822 12.2289 272.822 13.0592C272.822 15.8007 271.996 21.3738 270.343 29.7785C268.69 38.1832 267.864 43.8895 267.864 46.8973C267.864 47.7981 268.071 48.2485 268.486 48.2485C268.706 48.2485 269.419 47.8921 270.625 47.1793L271.189 46.8386ZM258.664 30.601C257.348 30.601 256.212 31.8973 255.257 34.49C254.301 37.0827 253.823 39.648 253.823 42.1858C253.823 44.7237 254 46.349 254.352 47.0618C254.712 47.7824 255.249 48.1427 255.962 48.1427C257.199 48.1427 258.421 47.6336 259.627 46.6153C259.737 45.1114 260.583 40.1101 262.165 31.6114C260.889 30.9378 259.721 30.601 258.664 30.601ZM308.923 16.2785C308.923 19.2472 307.635 22.2237 305.057 25.208C302.48 28.2002 299.445 30.7302 295.952 32.7981C296.735 33.5892 297.769 35.7315 299.054 39.225C300.33 42.7263 301.345 45.4247 302.097 47.3203C302.849 49.2158 303.761 51.0292 304.834 52.7602C305.9 54.4913 306.98 55.3568 308.077 55.3568C308.296 55.3568 308.465 55.3373 308.582 55.2981L309.146 57.3307C307.306 58.7955 305.198 59.5279 302.825 59.5279C300.46 59.5279 298.787 58.9169 297.808 57.695C296.829 56.473 295.928 53.9626 295.106 50.1636C294.988 49.678 294.667 48.1192 294.142 45.4874C292.975 39.738 292.035 36.2054 291.323 34.8895C291.095 34.9208 290.645 34.9365 289.971 34.9365C289.29 34.9365 288.781 34.8072 288.444 34.5487C288.185 34.2824 288.056 33.644 288.056 32.6336C288.056 31.6153 288.15 30.832 288.338 30.2837C288.526 29.7433 289.153 29.473 290.218 29.473C291.291 29.473 292.317 29.7903 293.296 30.4247C294.652 29.5239 296.324 27.7968 298.313 25.2433C299.371 23.3242 299.9 21.1427 299.9 18.6989C299.9 17.6101 299.806 16.4626 299.618 15.2563C300.855 14.4652 302.124 13.8346 303.424 13.3647C304.717 12.8947 305.704 12.6245 306.385 12.554L307.396 12.4365C308.414 13.0396 308.923 14.3203 308.923 16.2785ZM281.23 17.2302C281.23 16.3686 280.779 15.4286 279.879 14.4104L279.926 14.0226C281.994 12.8164 284.531 12.2132 287.539 12.2132C288.706 12.2132 289.572 12.3072 290.136 12.4952C290.324 12.9104 290.418 13.4822 290.418 14.2106C290.418 14.9469 290.363 15.7772 290.253 16.7015C290.136 17.6179 290.03 18.4247 289.936 19.1219C289.842 19.819 289.646 20.8255 289.349 22.1414C289.051 23.4574 288.824 24.3973 288.667 24.9613C285.589 36.8751 283.842 45.7655 283.427 51.6323C281.21 52.2746 278.747 52.5957 276.037 52.5957C275.402 52.5957 274.932 52.537 274.627 52.4195C274.815 50.0931 275.962 44.2655 278.069 34.9365C280.176 25.6153 281.23 19.7132 281.23 17.2302ZM324.592 28.9091C324.67 28.8307 324.878 28.3412 325.215 27.4404C326.985 27.4404 329.354 27.9652 332.323 29.0148C331.383 32.1401 330.631 35.4025 330.067 38.802C329.503 42.2093 329.221 44.6336 329.221 46.0749C329.221 47.5239 329.37 48.2485 329.668 48.2485C329.895 48.2485 330.725 47.8921 332.159 47.1793L332.828 46.8386L333.85 48.8125C333.506 49.1179 333.063 49.4939 332.523 49.9404C331.974 50.3947 330.948 51.0057 329.444 51.7733C327.941 52.5487 326.589 52.9365 325.391 52.9365C323.057 52.9365 321.702 51.8829 321.326 49.7759C318.921 51.8829 316.751 52.9365 314.817 52.9365C312.874 52.9365 311.237 52.1845 309.905 50.6806C308.574 49.1767 307.908 46.8072 307.908 43.5722C307.908 38.5357 308.942 34.5605 311.01 31.6467C313.078 28.7328 315.576 27.2759 318.506 27.2759C320.613 27.2759 322.642 27.8203 324.592 28.9091ZM318.165 48.1427C319.066 48.1427 320.08 47.7824 321.208 47.0618C321.474 41.7668 322.36 36.5226 323.864 31.3294C322.736 30.8438 321.776 30.601 320.985 30.601C319.63 30.601 318.474 31.9247 317.519 34.5722C316.563 37.2276 316.085 40.1532 316.085 43.349C316.085 46.5448 316.779 48.1427 318.165 48.1427ZM350.652 54.9574C348.396 54.9574 346.524 54.2172 345.036 52.7367C343.555 51.2485 342.815 49.5174 342.815 47.5435C342.815 45.5696 343.285 43.7289 344.225 42.0213C345.165 40.3059 346.508 38.7158 348.255 37.2511C350.002 35.7863 352.285 34.5762 355.105 33.6205C357.925 32.6571 361.046 32.1205 364.469 32.0109C366.459 27.084 368.225 21.5735 369.768 15.4796C369.807 15.2602 369.827 14.9704 369.827 14.6101C369.827 14.2498 369.639 13.9404 369.263 13.6819V13.1179C372.498 12.5148 375.451 12.2132 378.122 12.2132L381.506 12.4365C382.477 14.1675 383.021 16.5644 383.139 19.6271C383.249 22.6897 383.323 28.0004 383.362 35.5592C387.42 37.3294 390.897 39.5657 393.796 42.2681C393.647 42.7615 393.357 43.2433 392.926 43.7132C392.488 44.1832 392.08 44.5318 391.704 44.7589L391.14 45.0879C388.924 42.9104 386.35 41.05 383.421 39.507C383.491 41.6532 383.699 43.4587 384.044 44.9234C384.568 47.3281 385.187 48.5305 385.9 48.5305C386.315 48.5305 386.805 48.4365 387.369 48.2485L388.215 50.4456C385.622 52.1062 383.139 52.9365 380.766 52.9365C376.857 52.9365 374.903 49.9835 374.903 44.0775V36.6871C372.271 36.0527 369.882 35.6571 367.736 35.5004C362.848 48.4717 357.153 54.9574 350.652 54.9574ZM363.059 35.4534C358.814 35.7903 355.281 37.2746 352.461 39.9064C349.642 42.5383 348.232 45.0017 348.232 47.2968C348.232 49.584 349.113 50.7276 350.875 50.7276C354.486 50.7276 358.548 45.6362 363.059 35.4534ZM374.28 16.725C374.209 16.6858 374.061 16.6662 373.833 16.6662C373.606 16.6662 373.454 16.6858 373.375 16.725C373.038 19.584 371.574 24.7145 368.981 32.1166C370.822 32.2341 372.796 32.5004 374.903 32.9156C374.903 23.6649 374.695 18.2681 374.28 16.725ZM387.651 64.8856C387.463 64.4391 387.369 63.4443 387.369 61.9012C387.369 60.3581 388.101 56.2106 389.566 49.4587C391.031 42.7145 391.763 37.5174 391.763 33.8673C391.763 33.1545 391.595 32.3947 391.258 31.5879C390.921 30.7811 390.565 30.1506 390.189 29.6963L389.683 29.0735L389.73 28.3451C391.501 27.7811 394.622 27.4991 399.095 27.4991C399.51 28.2903 399.772 29.3986 399.882 30.8242C402.78 28.4587 405.196 27.2759 407.131 27.2759C409.066 27.2759 410.629 28.0827 411.819 29.6963C413.002 31.3098 413.593 33.6793 413.593 36.8046C413.593 42.2563 412.595 46.3059 410.597 48.9534C408.608 51.6088 406.089 52.9365 403.042 52.9365C401.468 52.9365 400.152 52.7093 399.095 52.255L398.531 52.0318L398.93 49.8346C399.267 49.9051 399.662 49.9404 400.117 49.9404C401.088 49.9404 401.942 49.49 402.678 48.5892C403.414 47.6884 403.971 46.5409 404.347 45.1467C405.099 42.366 405.474 39.7929 405.474 37.4273C405.474 34.0435 404.777 32.3516 403.383 32.3516C402.294 32.3516 401.127 32.7824 399.882 33.644C399.733 36.2759 398.965 40.8816 397.579 47.4613C396.185 54.0409 395.488 59.3438 395.488 63.3699C393.459 64.1923 390.847 64.6976 387.651 64.8856ZM414.552 64.8856C414.364 64.4391 414.27 63.4443 414.27 61.9012C414.27 60.3581 415.002 56.2106 416.467 49.4587C417.932 42.7145 418.664 37.5174 418.664 33.8673C418.664 33.1545 418.496 32.3947 418.159 31.5879C417.822 30.7811 417.466 30.1506 417.09 29.6963L416.585 29.0735L416.632 28.3451C418.402 27.7811 421.523 27.4991 425.996 27.4991C426.411 28.2903 426.673 29.3986 426.783 30.8242C429.681 28.4587 432.098 27.2759 434.032 27.2759C435.967 27.2759 437.53 28.0827 438.72 29.6963C439.903 31.3098 440.495 33.6793 440.495 36.8046C440.495 42.2563 439.496 46.3059 437.498 48.9534C435.509 51.6088 432.991 52.9365 429.944 52.9365C428.369 52.9365 427.053 52.7093 425.996 52.255L425.432 52.0318L425.831 49.8346C426.168 49.9051 426.564 49.9404 427.018 49.9404C427.989 49.9404 428.843 49.49 429.579 48.5892C430.316 47.6884 430.872 46.5409 431.248 45.1467C432 42.366 432.376 39.7929 432.376 37.4273C432.376 34.0435 431.679 32.3516 430.284 32.3516C429.196 32.3516 428.029 32.7824 426.783 33.644C426.634 36.2759 425.867 40.8816 424.48 47.4613C423.086 54.0409 422.389 59.3438 422.389 63.3699C420.36 64.1923 417.748 64.6976 414.552 64.8856Z" fill="#E4E4E4"/>
<path d="M179.713 68.6389C179.809 68.6389 179.884 68.6827 179.937 68.7701C179.991 68.8576 180.018 68.9691 180.018 69.1045C180.018 69.2936 179.974 69.4897 179.886 69.6929C179.799 69.8961 179.687 70.0245 179.552 70.0781C177.613 69.7395 175.785 69.5645 174.066 69.5532V74.9161H179.044C179.084 75.077 179.103 75.2392 179.103 75.4029C179.103 75.592 179.084 75.7613 179.044 75.9108H174.087V80.4018C174.087 81.3894 174.175 82.1133 174.35 82.5732C174.065 82.8187 173.746 82.9415 173.393 82.9415C173.122 82.9415 172.899 82.8596 172.725 82.696C172.55 82.5351 172.462 82.3192 172.462 82.0483L172.441 71.1574C172.441 70.277 172.352 69.5786 172.174 69.0622C172.366 68.9014 172.559 68.7899 172.754 68.7278C172.952 68.6686 173.227 68.6389 173.58 68.6389H179.713ZM186.559 82.9796C185.097 82.9796 183.957 82.5027 183.139 81.5489C182.318 80.5951 181.907 79.2646 181.907 77.5574C181.907 75.8502 182.318 74.5197 183.139 73.5659C183.957 72.6093 185.097 72.131 186.559 72.131C188.038 72.131 189.186 72.6093 190.004 73.5659C190.823 74.5197 191.232 75.8502 191.232 77.5574C191.232 79.2646 190.823 80.5951 190.004 81.5489C189.186 82.5027 188.038 82.9796 186.559 82.9796ZM186.559 82.2515C187.507 82.2515 188.232 81.848 188.735 81.041C189.237 80.2339 189.488 79.0727 189.488 77.5574C189.488 76.0392 189.237 74.8809 188.735 74.0823C188.232 73.2837 187.507 72.8844 186.559 72.8844C185.611 72.8844 184.887 73.2837 184.387 74.0823C183.885 74.8809 183.634 76.0392 183.634 77.5574C183.634 79.0727 183.885 80.2339 184.387 81.041C184.887 81.848 185.611 82.2515 186.559 82.2515ZM197.672 82.9796C196.211 82.9796 195.071 82.5027 194.252 81.5489C193.431 80.5951 193.021 79.2646 193.021 77.5574C193.021 75.8502 193.431 74.5197 194.252 73.5659C195.071 72.6093 196.211 72.131 197.672 72.131C199.151 72.131 200.3 72.6093 201.118 73.5659C201.936 74.5197 202.345 75.8502 202.345 77.5574C202.345 79.2646 201.936 80.5951 201.118 81.5489C200.3 82.5027 199.151 82.9796 197.672 82.9796ZM197.672 82.2515C198.621 82.2515 199.346 81.848 199.848 81.041C200.35 80.2339 200.602 79.0727 200.602 77.5574C200.602 76.0392 200.35 74.8809 199.848 74.0823C199.346 73.2837 198.621 72.8844 197.672 72.8844C196.724 72.8844 196.001 73.2837 195.501 74.0823C194.999 74.8809 194.748 76.0392 194.748 77.5574C194.748 79.0727 194.999 80.2339 195.501 81.041C196.001 81.848 196.724 82.2515 197.672 82.2515ZM213.967 81.3161C214.117 81.5193 214.191 81.7351 214.191 81.9637C214.191 82.2346 214.073 82.4547 213.836 82.624C213.599 82.7933 213.298 82.878 212.934 82.878C211.822 82.878 211.266 82.0117 211.266 80.2791V80.1351C210.942 81.0297 210.478 81.7281 209.874 82.2304C209.273 82.7298 208.525 82.9796 207.63 82.9796C206.33 82.9796 205.422 82.4998 204.909 81.5404C204.392 80.5782 204.134 79.4127 204.134 78.0441C204.134 76.1761 204.504 74.7228 205.243 73.6844C205.98 72.6488 207.032 72.131 208.401 72.131C209.092 72.131 209.678 72.2706 210.157 72.55C210.64 72.8266 210.99 73.2287 211.207 73.7564L211.186 71.0347C211.186 69.7874 211.097 68.859 210.919 68.2495C211.165 68.0068 211.477 67.8855 211.855 67.8855C212.14 67.8855 212.37 67.9631 212.545 68.1183C212.723 68.2735 212.811 68.4936 212.811 68.7786L212.79 80.5838C212.79 81.2752 213 81.6208 213.421 81.6208C213.678 81.6208 213.86 81.5193 213.967 81.3161ZM208.037 81.9849C208.686 81.9849 209.247 81.7408 209.721 81.2526C210.196 80.7672 210.555 80.1112 210.801 79.2843C211.044 78.4575 211.165 77.5433 211.165 76.5415C211.165 74.2389 210.332 73.0876 208.668 73.0876C207.759 73.0876 207.065 73.501 206.585 74.3278C206.102 75.1518 205.861 76.3708 205.861 77.9849C205.861 79.1898 206.014 80.1577 206.318 80.8886C206.623 81.6194 207.196 81.9849 208.037 81.9849ZM225.793 82.9796C224.032 82.9796 222.692 82.37 221.772 81.151C220.849 79.932 220.388 78.1105 220.388 75.6865C220.388 73.2484 220.849 71.4199 221.772 70.2008C222.692 68.9818 224.032 68.3723 225.793 68.3723C227.568 68.3723 228.916 68.9818 229.836 70.2008C230.758 71.4199 231.22 73.2484 231.22 75.6865C231.22 78.1246 230.758 79.9503 229.836 81.1637C228.916 82.3743 227.568 82.9796 225.793 82.9796ZM225.793 82.2304C226.998 82.2304 227.903 81.6984 228.507 80.6346C229.108 79.5708 229.408 77.9214 229.408 75.6865C229.408 73.4375 229.108 71.7825 228.507 70.7215C227.903 69.6576 226.998 69.1257 225.793 69.1257C224.602 69.1257 223.705 69.6604 223.101 70.7299C222.497 71.7994 222.195 73.4516 222.195 75.6865C222.195 77.9214 222.497 79.5708 223.101 80.6346C223.705 81.6984 224.602 82.2304 225.793 82.2304ZM243.143 81.3161C243.292 81.5193 243.367 81.7351 243.367 81.9637C243.367 82.2346 243.248 82.4547 243.011 82.624C242.774 82.7933 242.474 82.878 242.11 82.878C240.998 82.878 240.442 82.0117 240.442 80.2791V80.1351C240.118 81.0297 239.653 81.7281 239.049 82.2304C238.448 82.7298 237.701 82.9796 236.806 82.9796C235.505 82.9796 234.598 82.4998 234.084 81.5404C233.568 80.5782 233.31 79.4127 233.31 78.0441C233.31 76.1761 233.68 74.7228 234.419 73.6844C235.155 72.6488 236.208 72.131 237.576 72.131C238.268 72.131 238.853 72.2706 239.333 72.55C239.816 72.8266 240.166 73.2287 240.383 73.7564L240.362 71.0347C240.362 69.7874 240.273 68.859 240.095 68.2495C240.34 68.0068 240.652 67.8855 241.03 67.8855C241.315 67.8855 241.545 67.9631 241.72 68.1183C241.898 68.2735 241.987 68.4936 241.987 68.7786L241.966 80.5838C241.966 81.2752 242.176 81.6208 242.597 81.6208C242.853 81.6208 243.035 81.5193 243.143 81.3161ZM237.212 81.9849C237.862 81.9849 238.423 81.7408 238.897 81.2526C239.371 80.7672 239.731 80.1112 239.976 79.2843C240.219 78.4575 240.34 77.5433 240.34 76.5415C240.34 74.2389 239.508 73.0876 237.843 73.0876C236.935 73.0876 236.24 73.501 235.761 74.3278C235.278 75.1518 235.037 76.3708 235.037 77.9849C235.037 79.1898 235.189 80.1577 235.494 80.8886C235.799 81.6194 236.372 81.9849 237.212 81.9849ZM253 80.097C253.203 80.1648 253.305 80.32 253.305 80.5626C253.305 80.6981 253.264 80.8815 253.182 81.1129C252.925 81.7083 252.475 82.1683 251.832 82.4928C251.188 82.8173 250.432 82.9796 249.563 82.9796C248.073 82.9796 246.909 82.5168 246.071 81.5912C245.23 80.6628 244.809 79.338 244.809 77.6166C244.809 75.9094 245.226 74.569 246.058 73.5955C246.893 72.6191 248.09 72.131 249.648 72.131C250.771 72.131 251.671 72.3849 252.348 72.8929C253.025 73.4008 253.364 74.1218 253.364 75.0558C253.364 76.0604 252.958 76.8265 252.145 77.3542C251.332 77.8819 250.201 78.1457 248.75 78.1457C247.952 78.1457 247.221 78.0978 246.558 78.0018C246.639 79.3704 246.981 80.3567 247.582 80.9605C248.186 81.5616 248.976 81.8621 249.952 81.8621C250.697 81.8621 251.341 81.7097 251.882 81.405C252.424 81.1002 252.797 80.6642 253 80.097ZM249.584 72.8632C248.664 72.8632 247.929 73.2456 247.379 74.0103C246.831 74.775 246.551 75.8756 246.536 77.3119C247.188 77.3655 247.717 77.3994 248.124 77.4135C249.207 77.4135 250.064 77.2202 250.693 76.8336C251.322 76.4498 251.637 75.7895 251.637 74.8526C251.637 74.1359 251.441 73.6251 251.049 73.3204C250.656 73.0156 250.168 72.8632 249.584 72.8632ZM260.313 72.131C261.016 72.131 261.582 72.3172 262.011 72.6897C262.437 73.0622 262.65 73.58 262.65 74.2431C262.65 74.6918 262.521 75.0615 262.265 75.3521C262.005 75.6428 261.7 75.7881 261.35 75.7881C261.051 75.7881 260.848 75.7204 260.741 75.5849C260.887 75.3563 260.989 75.1433 261.046 74.9458C261.099 74.7482 261.126 74.5281 261.126 74.2854C261.126 73.4445 260.732 73.0241 259.945 73.0241C259.335 73.0241 258.825 73.4135 258.413 74.1923C258.001 74.9712 257.795 76.1803 257.795 77.8198V78.9161C257.795 80.1351 257.807 80.9619 257.833 81.3965C257.861 81.8311 257.936 82.2106 258.057 82.5351C257.772 82.7778 257.453 82.8991 257.101 82.8991C256.83 82.8991 256.607 82.8145 256.432 82.6452C256.257 82.4759 256.169 82.2431 256.169 81.9468V74.4675C256.169 74.0893 256.124 73.8184 256.034 73.6548C255.946 73.4939 255.801 73.4135 255.598 73.4135C255.341 73.4135 255.165 73.5207 255.069 73.7352C254.908 73.5066 254.828 73.2907 254.828 73.0876C254.828 72.8026 254.936 72.5754 255.154 72.4061C255.368 72.2368 255.666 72.1521 256.047 72.1521C256.574 72.1521 256.971 72.3384 257.236 72.7109C257.498 73.0833 257.623 73.635 257.609 74.3659V74.4675C257.84 73.6971 258.186 73.1144 258.646 72.7193C259.106 72.3271 259.661 72.131 260.313 72.131ZM279.064 81.5997C279.214 82.0455 279.376 82.3644 279.551 82.5563C279.323 82.8131 279.005 82.9415 278.599 82.9415C278.342 82.9415 278.118 82.8836 277.926 82.7679C277.737 82.6522 277.615 82.4857 277.562 82.2685L276.322 78.2473H271.001L269.985 81.642C269.903 81.9383 269.862 82.1612 269.862 82.3108C269.862 82.5281 269.903 82.6833 269.985 82.7764C269.7 82.8864 269.401 82.9415 269.088 82.9415C268.467 82.9415 268.157 82.6903 268.157 82.188C268.157 82.0131 268.224 81.7083 268.36 81.2738L272.664 68.6389C273.113 68.4612 273.56 68.3723 274.006 68.3723C274.534 68.3723 274.858 68.5754 274.98 68.9818L279.064 81.5997ZM271.306 77.2738H276.038L273.642 69.4686L271.306 77.2738ZM286.766 72.131C288.067 72.131 288.977 72.6149 289.497 73.5828C290.019 74.5535 290.28 75.7161 290.28 77.0706C290.28 78.9387 289.904 80.3905 289.154 81.4261C288.4 82.4618 287.346 82.9796 285.992 82.9796C285.303 82.9796 284.718 82.8385 284.235 82.5563C283.755 82.2713 283.414 81.8706 283.211 81.3542V83.8346C283.211 84.3623 283.231 84.9111 283.27 85.4811C283.312 86.0483 283.38 86.5083 283.473 86.861C283.391 86.957 283.27 87.0416 283.109 87.115C282.946 87.1912 282.755 87.2293 282.538 87.2293C282.256 87.2293 282.026 87.1502 281.848 86.9922C281.673 86.837 281.585 86.6169 281.585 86.3319L281.607 74.5098C281.607 74.1288 281.561 73.8608 281.471 73.7056C281.384 73.5504 281.238 73.4728 281.035 73.4728C280.778 73.4728 280.602 73.5743 280.506 73.7775C280.345 73.5461 280.265 73.3288 280.265 73.1257C280.265 72.8548 280.379 72.6347 280.608 72.4654C280.839 72.296 281.131 72.2114 281.484 72.2114C282.582 72.2114 283.13 73.0721 283.13 74.7934V74.9754C283.455 74.0809 283.918 73.3839 284.519 72.8844C285.123 72.3821 285.872 72.131 286.766 72.131ZM285.628 82.0272C286.59 82.0272 287.318 81.611 287.812 80.7785C288.306 79.9433 288.553 78.7129 288.553 77.0875C288.553 75.9249 288.4 74.974 288.095 74.2347C287.791 73.4953 287.212 73.1257 286.36 73.1257C285.708 73.1257 285.145 73.3669 284.671 73.8495C284.197 74.3292 283.839 74.9754 283.596 75.7881C283.353 76.6008 283.232 77.4812 283.232 78.4293C283.232 79.5411 283.407 80.4187 283.757 81.0621C284.11 81.7055 284.733 82.0272 285.628 82.0272ZM298.205 72.131C299.506 72.131 300.416 72.6149 300.935 73.5828C301.457 74.5535 301.718 75.7161 301.718 77.0706C301.718 78.9387 301.343 80.3905 300.592 81.4261C299.839 82.4618 298.785 82.9796 297.43 82.9796C296.742 82.9796 296.156 82.8385 295.674 82.5563C295.194 82.2713 294.853 81.8706 294.649 81.3542V83.8346C294.649 84.3623 294.669 84.9111 294.709 85.4811C294.751 86.0483 294.819 86.5083 294.912 86.861C294.83 86.957 294.709 87.0416 294.548 87.115C294.384 87.1912 294.194 87.2293 293.976 87.2293C293.694 87.2293 293.464 87.1502 293.287 86.9922C293.112 86.837 293.024 86.6169 293.024 86.3319L293.045 74.5098C293.045 74.1288 293 73.8608 292.91 73.7056C292.822 73.5504 292.677 73.4728 292.474 73.4728C292.217 73.4728 292.041 73.5743 291.945 73.7775C291.784 73.5461 291.703 73.3288 291.703 73.1257C291.703 72.8548 291.818 72.6347 292.046 72.4654C292.278 72.296 292.57 72.2114 292.923 72.2114C294.02 72.2114 294.569 73.0721 294.569 74.7934V74.9754C294.894 74.0809 295.356 73.3839 295.957 72.8844C296.561 72.3821 297.31 72.131 298.205 72.131ZM297.066 82.0272C298.029 82.0272 298.757 81.611 299.251 80.7785C299.744 79.9433 299.991 78.7129 299.991 77.0875C299.991 75.9249 299.839 74.974 299.534 74.2347C299.229 73.4953 298.651 73.1257 297.799 73.1257C297.147 73.1257 296.584 73.3669 296.11 73.8495C295.636 74.3292 295.277 74.9754 295.035 75.7881C294.792 76.6008 294.671 77.4812 294.671 78.4293C294.671 79.5411 294.846 80.4187 295.196 81.0621C295.548 81.7055 296.172 82.0272 297.066 82.0272Z" fill="#E4E4E4"/>
</svg>
